<svg width="100" height="120" viewBox="0 0 100 120" fill="none" xmlns="http://www.w3.org/2000/svg">
<g clip-path="url(#clip0_420_475)">
<path fill-rule="evenodd" clip-rule="evenodd" d="M59.5996 13.7346L82.7035 27.9637C83.3705 27.2109 84.136 26.5648 84.9762 26.0454C89.7676 23.1071 95.8793 24.8517 98.6625 29.9629C101.417 35.0742 99.7816 41.5929 94.9898 44.5617C94.1559 45.0739 93.2573 45.4556 92.3215 45.695V74.1637C93.247 74.4035 94.1359 74.7826 94.9613 75.2896C99.7816 78.2583 101.417 84.7775 98.634 89.8887C95.8793 94.9996 89.7391 96.7442 84.9473 93.8062C84.019 93.2382 83.1827 92.514 82.4707 91.6617L59.5074 105.803C59.8437 106.889 60.0145 108.026 60.0133 109.17C60.0133 115.046 55.5375 119.852 49.9996 119.852C44.4617 119.852 39.9859 115.077 39.9859 109.17C39.9859 108.12 40.1273 107.106 40.391 106.148L17.2934 91.9229C16.6337 92.6608 15.879 93.2949 15.052 93.8062C10.2316 96.7442 4.11992 94.9996 1.36524 89.8887C-1.38906 84.7775 0.246488 78.2583 5.03789 75.2896C5.86332 74.7825 6.75217 74.4033 7.67774 74.1633V45.695C6.74195 45.4556 5.8433 45.0739 5.00938 44.5617C0.217581 41.6237 -1.41797 35.0742 1.33672 29.9629C4.09141 24.8517 10.2313 23.1071 15.023 26.0454C15.8586 26.562 16.6203 27.204 17.2848 27.9517L40.3953 13.7187C40.1229 12.7325 39.985 11.7095 39.9859 10.6812C39.9859 4.775 44.4617 0 49.9996 0C55.5375 0 60.0133 4.77458 60.0133 10.6812C60.0133 11.7429 59.8688 12.7675 59.5996 13.7346ZM57.1926 18.1187L80.3516 32.3812C79.9828 33.7563 79.877 35.1964 80.0406 36.6159C80.2041 38.0354 80.6336 39.4053 81.3035 40.6442C82.7133 43.26 85.0098 44.9942 87.5586 45.67V74.1742C87.4285 74.2079 87.2992 74.245 87.1707 74.2842L56.9234 18.4042C57.0148 18.3108 57.1047 18.2158 57.1926 18.1192V18.1187ZM43.082 18.4104L12.8352 74.2896C12.7044 74.2492 12.5728 74.2117 12.4406 74.1771V45.67C14.9895 44.9942 17.2859 43.26 18.6957 40.6442C19.367 39.4029 19.7969 38.0301 19.9597 36.6077C20.1226 35.1853 20.0152 33.7425 19.6438 32.3654L42.7961 18.1071C42.8895 18.21 42.9848 18.3112 43.082 18.41V18.4104ZM52.7977 20.9417L83.0375 76.8083C82.3448 77.5134 81.7511 78.3213 81.2746 79.2071C80.7993 80.0875 80.4439 81.0356 80.2191 82.0229H19.7809C19.5558 81.0356 19.2001 80.0875 18.7246 79.2071C18.2465 78.3274 17.6539 77.5244 16.9645 76.8221L47.2102 20.9442C48.1169 21.2227 49.056 21.3635 49.9996 21.3625C50.9711 21.3625 51.9098 21.2158 52.7977 20.9417ZM57.4051 101.974L80.4137 87.8042C80.3447 87.5728 80.2831 87.3391 80.2289 87.1033H19.768C19.7359 87.2418 19.7013 87.3796 19.6641 87.5167L42.7852 101.756C43.7188 100.721 44.8393 99.8973 46.0792 99.3357C47.3191 98.7742 48.6526 98.4861 49.9996 98.4887C51.3937 98.4861 52.7728 98.7949 54.0483 99.3952C55.3237 99.9955 56.4672 100.874 57.4051 101.974V101.974Z" fill="#E535AB"/>
</g>
<defs>
<clipPath id="clip0_420_475">
<rect width="100" height="120" fill="white"/>
</clipPath>
</defs>
</svg>
